<svg xmlns="http://www.w3.org/2000/svg" xml:space="preserve" id="Layer_1" x="0" y="0" version="1.1" viewBox="0 0 150 42.4" width="150px" height="43px">
  <style>
    .st0,.st1{fill-rule:evenodd;clip-rule:evenodd;fill:#ee1c2e}.st1{fill:#00539f}
  </style>
  <path id="Fill-388" d="M1.5.6h30.4v6.6c-2.2-1.8-6.7-2.5-11.6-2.5v18c0 2.7.2 3.4 1.3 4.8h-9.7c1-1.4 1.3-2.1 1.3-4.8v-18c-4.9 0-9.5.7-11.6 2.5V.6zm45 22.8c3.1 0 8.3-.7 10.4-2.5v6.6H34.7c1.1-1.3 1.3-2.1 1.3-4.7V5.3c0-2.6-.2-3.4-1.3-4.7h21v6.6c-2-1.8-7.2-2.5-10.4-2.5h-2.5v7.1h1.8c1.8 0 4.5-.1 6.3-.7v5.3c-1.8-.7-4.5-.7-6.3-.7h-1.8v7.7h3.7zm29-12.5c5.3.7 9.7 2.6 9.7 8.3 0 6.7-6.4 8.9-13.3 8.8-4.8 0-8.9-.5-11.9-1.7v-6c4.3 2.8 8.7 3.6 11.9 3.6 3.3 0 6.4-.8 6.4-3.3s-2.8-3.1-8.7-4c-5-.8-9.6-2.9-9.7-7.9C59.9 2 66.3 0 72.3 0c3.9 0 7.7.5 11.2 1.6v6.5c-2.9-2.6-7.3-4-11.5-4-2.9 0-5.6.9-5.6 3.1 0 2.6 4.1 3 9.1 3.7zM105.6 0c3.2 0 5.9.4 8.1 1v6.7c-2.2-2.2-4.7-3.6-8-3.6-6.1 0-10.2 4.3-10.2 9.9s4.1 9.9 10.2 9.9c3.3 0 5.9-1.4 8-3.6V27c-2.2.6-4.9 1-8.1 1-10.6 0-18.3-5.2-18.3-14S95 0 105.6 0z" class="st0"/>
  <path id="Fill-389" d="M133 0c-10.9 0-17 6.3-17 14 0 7.6 6.2 14 17 14s17-6.4 17-14c0-7.7-6.2-14-17-14m0 24c-5.5 0-9-4.5-9-9.9 0-5.5 3.6-9.9 9-9.9 5.5 0 9 4.5 9 9.9 0 5.3-3.6 9.9-9 9.9" class="st0"/>
  <path id="Fill-390" d="M131.7 34.8h18.2v.2c-2.1 1-4.9 4-4.9 4-2.1 2.1-3.7 3.4-7.1 3.4h-17.3c-.1 0-.1 0-.1-.1v-.1h.1c1.9-1.1 4.7-4.1 4.7-4.1 1.2-1.4 3.5-3.3 6.4-3.3" class="st1"/>
  <path id="Fill-391" d="M101.4 34.8h18.2v.2c-2.1 1-4.9 4-4.9 4-2.1 2.1-3.7 3.4-7.1 3.4H90.2s-.1 0-.1-.1v-.1h.1c1.9-1.1 4.7-4.1 4.7-4.1 1.2-1.4 3.6-3.3 6.5-3.3" class="st1"/>
  <path id="Fill-392" d="M71.1 34.8h18.2v.2c-2.1 1-4.9 4-4.9 4-2.1 2.1-3.7 3.4-7.1 3.4H59.9s-.1 0-.1-.1v-.1h.1c1.9-1.1 4.7-4.1 4.7-4.1 1.2-1.4 3.6-3.3 6.5-3.3" class="st1"/>
  <path id="Fill-393" d="M41.6 34.8h18.2v.2c-2.1 1-4.9 4-4.9 4-2.1 2.1-3.7 3.4-7.1 3.4H30.4s-.1 0-.1-.1v-.1h.1c1.9-1.1 4.7-4.1 4.7-4.1 1.2-1.4 3.5-3.3 6.5-3.3" class="st1"/>
  <path id="Fill-394" d="M11.3 34.8h18.2v.2c-2.1 1-4.9 4-4.9 4-2.1 2.1-3.7 3.4-7.1 3.4H.1s-.1 0-.1-.1v-.1h.1c1.9-1.1 4.7-4.1 4.7-4.1 1.2-1.4 3.5-3.3 6.5-3.3" class="st1"/>
</svg>
